<?xml version="1.0" encoding="UTF-8" standalone="no"?>
<svg
   viewBox="0 0 24 24"
   fill="none"
   stroke="currentColor"
   stroke-width="2"
   stroke-linecap="round"
   stroke-linejoin="round"
   class="feather feather-file-text"
   version="1.1"
   id="svg1732"
   sodipodi:docname="file-blue.svg"
   inkscape:version="1.1.1 (1:1.1+202109281949+c3084ef5ed)"
   xmlns:inkscape="http://www.inkscape.org/namespaces/inkscape"
   xmlns:sodipodi="http://sodipodi.sourceforge.net/DTD/sodipodi-0.dtd"
   xmlns="http://www.w3.org/2000/svg"
   xmlns:svg="http://www.w3.org/2000/svg">
  <defs
     id="defs1736" />
  <sodipodi:namedview
     id="namedview1734"
     pagecolor="#ffffff"
     bordercolor="#666666"
     borderopacity="1.0"
     inkscape:pageshadow="2"
     inkscape:pageopacity="0.0"
     inkscape:pagecheckerboard="0"
     showgrid="false"
     inkscape:zoom="32.333333"
     inkscape:cx="11.984536"
     inkscape:cy="12.015464"
     inkscape:window-width="1920"
     inkscape:window-height="948"
     inkscape:window-x="0"
     inkscape:window-y="27"
     inkscape:window-maximized="1"
     inkscape:current-layer="svg1732" />
  <path
     d="M14 2H6a2 2 0 0 0-2 2v16a2 2 0 0 0 2 2h12a2 2 0 0 0 2-2V8z"
     id="path1722" />
  <polyline
     points="14 2 14 8 20 8"
     id="polyline1724" />
  <line
     x1="16"
     y1="13"
     x2="8"
     y2="13"
     id="line1726" />
  <line
     x1="16"
     y1="17"
     x2="8"
     y2="17"
     id="line1728" />
  <polyline
     points="10 9 9 9 8 9"
     id="polyline1730" />
  <path
     style="fill:#0066cb;stroke:#0066cb;stroke-width:0.0618557"
     d="M 5.3969072,22.919723 C 4.2930977,22.685669 3.3792341,21.804456 3.1013548,20.706186 L 3.0309278,20.427835 V 12 3.5721649 L 3.1013548,3.2938144 C 3.25443,2.6888113 3.6537993,2.067753 4.1366409,1.6838435 4.4343471,1.447136 4.9066601,1.2034014 5.257732,1.1053105 l 0.2474226,-0.069131 4.4536083,-0.0083 4.4536081,-0.0083 3.220491,3.2247461 c 2.874454,2.8782519 3.226707,3.2413617 3.27835,3.3793852 0.05584,0.1492281 0.05786,0.3759579 0.05786,6.4793812 v 6.324742 l -0.07043,0.278351 c -0.147816,0.584217 -0.539421,1.205533 -1.002879,1.591153 -0.266498,0.221739 -0.797756,0.496633 -1.153498,0.596866 l -0.247423,0.06971 -6.417525,0.0058 c -6.0777498,0.0055 -6.4314447,0.0028 -6.6804128,-0.04997 z M 18.417526,20.920558 c 0.210352,-0.09749 0.381855,-0.259193 0.489785,-0.461795 l 0.08238,-0.154639 0.0081,-5.652062 L 19.005808,9 16.538987,8.9997526 C 14.965445,8.9995979 13.999706,8.9877628 13.872067,8.9670541 13.505625,8.9076015 13.259848,8.7213677 13.101065,8.3828406 L 13.020619,8.2113402 13.012043,5.6056701 13.003467,3 9.3780223,3.0003021 5.7525773,3.0006043 5.5824742,3.0794414 C 5.3721223,3.1769326 5.200619,3.338635 5.0926887,3.5412371 L 5.0103093,3.6958763 V 12 20.304124 l 0.082379,0.154639 c 0.1079303,0.202602 0.2794336,0.364304 0.4897855,0.461795 l 0.1701031,0.07884 H 12 18.247423 Z M 17.613402,7.0127502 c 0,-0.00433 -0.591495,-0.5992404 -1.314433,-1.3220286 L 14.984536,4.3765614 V 5.69859 7.0206186 h 1.314433 c 0.722938,0 1.314433,-0.00354 1.314433,-0.00787 z"
     id="path1832" />
  <path
     style="fill:#0066cb;stroke:#0066cb;stroke-width:0.0618557"
     d="m 7.8437522,17.965109 c -0.479274,-0.07959 -0.8223569,-0.486004 -0.8190761,-0.970264 0.00179,-0.264718 0.075386,-0.44689 0.2625634,-0.649953 0.073127,-0.07933 0.203104,-0.18127 0.2888385,-0.226526 l 0.1558808,-0.08228 H 12 16.268041 l 0.154639,0.08197 c 0.48132,0.255137 0.687512,0.804218 0.474959,1.264802 -0.155588,0.337146 -0.402637,0.524659 -0.769706,0.584213 -0.249535,0.04049 -8.0396933,0.03864 -8.2841808,-0.002 z"
     id="path1871" />
  <path
     style="fill:#0066cb;stroke:#0066cb;stroke-width:0.0618557"
     d="m 7.7474227,13.950682 c -0.2722786,-0.0839 -0.5415372,-0.323344 -0.6572103,-0.584424 -0.09544,-0.215414 -0.090389,-0.526924 0.012148,-0.749113 0.1555883,-0.337146 0.4026373,-0.524659 0.7697058,-0.584213 0.2763827,-0.04484 7.9794848,-0.04484 8.2558668,0 0.367069,0.05955 0.614118,0.247067 0.769706,0.584213 0.102537,0.222189 0.107589,0.533699 0.01215,0.749113 -0.08536,0.192673 -0.29422,0.414213 -0.485866,0.515376 l -0.155881,0.08228 -4.221649,0.0053 c -2.3219079,0.0029 -4.2564439,-0.0054 -4.2989697,-0.01853 z"
     id="path1910" />
  <path
     style="fill:#0066cb;stroke:#0066cb;stroke-width:0.0618557"
     d="M 7.7458936,9.9484204 C 7.3827644,9.8482828 7.115717,9.5537007 7.034822,9.1640312 6.9491948,8.7515676 7.2037029,8.2842034 7.6182782,8.0926048 7.7588504,8.0276385 7.7974157,8.0257732 9,8.0257732 c 1.202584,0 1.241149,0.00187 1.381722,0.066832 0.305491,0.1411846 0.516492,0.4146396 0.585648,0.7589933 0.08147,0.4056641 -0.174981,0.865703 -0.58951,1.0575053 -0.134412,0.062193 -0.193639,0.065416 -1.3160043,0.071621 -0.8646331,0.00478 -1.2124464,-0.00376 -1.3159621,-0.032304 z"
     id="path1949" />
</svg>
