<?xml version="1.0" encoding="UTF-8" standalone="no"?>
<!-- Generator: Adobe Illustrator 16.0.0, SVG Export Plug-In . SVG Version: 6.00 Build 0)  -->

<svg
   version="1.1"
   id="Capa_1"
   x="0px"
   y="0px"
   width="545.027px"
   height="545.027px"
   viewBox="0 0 545.027 545.027"
   style="enable-background:new 0 0 545.027 545.027;"
   xml:space="preserve"
   sodipodi:docname="folder.svg"
   inkscape:version="1.1.1 (1:1.1+202109281949+c3084ef5ed)"
   xmlns:inkscape="http://www.inkscape.org/namespaces/inkscape"
   xmlns:sodipodi="http://sodipodi.sourceforge.net/DTD/sodipodi-0.dtd"
   xmlns="http://www.w3.org/2000/svg"
   xmlns:svg="http://www.w3.org/2000/svg"><defs
   id="defs1495" /><sodipodi:namedview
   id="namedview1493"
   pagecolor="#ffffff"
   bordercolor="#666666"
   borderopacity="1.0"
   inkscape:pageshadow="2"
   inkscape:pageopacity="0.0"
   inkscape:pagecheckerboard="0"
   showgrid="false"
   inkscape:zoom="1.3558962"
   inkscape:cx="272.51349"
   inkscape:cy="272.51349"
   inkscape:window-width="1920"
   inkscape:window-height="948"
   inkscape:window-x="0"
   inkscape:window-y="27"
   inkscape:window-maximized="1"
   inkscape:current-layer="Capa_1" />
<g
   id="g1460">
	<path
   d="M540.743,281.356c-4.179-8.754-10.568-15.464-19.123-20.12c-8.566-4.665-17.987-6.995-28.264-6.995h-54.819v-45.683   c0-17.511-6.283-32.548-18.843-45.111c-12.566-12.562-27.604-18.842-45.111-18.842H219.268v-9.136   c0-17.511-6.283-32.548-18.842-45.107c-12.564-12.562-27.6-18.846-45.111-18.846H63.953c-17.511,0-32.548,6.283-45.111,18.846   C6.28,102.922,0,117.959,0,135.47v274.088c0,17.508,6.28,32.545,18.842,45.104c12.563,12.565,27.6,18.849,45.111,18.849h310.636   c12.748,0,26.07-3.285,39.971-9.855c13.895-6.563,24.928-14.894,33.113-24.981L531.9,335.037   c8.754-11.037,13.127-22.453,13.127-34.26C545.031,293.923,543.603,287.458,540.743,281.356z M36.547,135.474   c0-7.611,2.663-14.084,7.993-19.414c5.326-5.327,11.799-7.993,19.414-7.993h91.365c7.615,0,14.084,2.663,19.414,7.993   c5.327,5.33,7.993,11.803,7.993,19.414v18.274c0,7.616,2.667,14.087,7.994,19.414s11.798,7.994,19.412,7.994h164.452   c7.611,0,14.089,2.666,19.418,7.993c5.324,5.326,7.99,11.799,7.99,19.414v45.682H182.725c-12.941,0-26.269,3.284-39.973,9.851   c-13.706,6.567-24.744,14.893-33.12,24.986l-73.085,89.931V135.474z M503.345,311.917l-83.939,103.637   c-4.753,5.899-11.512,10.943-20.272,15.125c-8.754,4.189-16.939,6.283-24.551,6.283H63.953c-10.088,0-15.131-3.333-15.131-9.992   c0-3.046,1.713-6.852,5.14-11.427l83.938-103.633c4.949-5.903,11.75-10.896,20.413-14.989c8.658-4.093,16.796-6.14,24.411-6.14   h310.631c10.088,0,15.129,3.333,15.129,9.993C508.485,304.019,506.778,307.728,503.345,311.917z"
   id="path1458" />
</g>
<g
   id="g1462">
</g>
<g
   id="g1464">
</g>
<g
   id="g1466">
</g>
<g
   id="g1468">
</g>
<g
   id="g1470">
</g>
<g
   id="g1472">
</g>
<g
   id="g1474">
</g>
<g
   id="g1476">
</g>
<g
   id="g1478">
</g>
<g
   id="g1480">
</g>
<g
   id="g1482">
</g>
<g
   id="g1484">
</g>
<g
   id="g1486">
</g>
<g
   id="g1488">
</g>
<g
   id="g1490">
</g>
<path
   style="fill:#0066cb;stroke:#0066cb;stroke-width:0.73752"
   d="M 56.801769,472.68201 C 29.297979,469.73863 5.5542513,447.1125 1.1488714,419.64865 0.08158375,412.995 0.08158375,132.03198 1.1488714,125.37833 4.8594335,102.24608 22.922663,81.578629 45.525628,74.603662 c 2.729128,-0.842172 8.323346,-1.876155 12.431597,-2.297741 9.544971,-0.9795 94.551355,-0.990647 103.827315,-0.01362 13.7948,1.452999 25.92799,7.082722 36.40057,16.889624 9.25197,8.663889 15.137,17.953525 18.33847,28.947595 1.16201,3.99044 1.67333,8.25205 1.95372,16.28343 l 0.37979,10.87841 81.95779,0.0128 c 89.18201,0.0139 86.00139,-0.1246 97.22931,4.23521 14.23386,5.52703 28.56279,19.37962 34.92368,33.76269 4.49575,10.16569 4.93484,13.78363 5.2934,43.61533 l 0.32955,27.41833 32.19877,0.29481 c 28.17101,0.25792 32.79844,0.4612 36.99265,1.62505 15.06378,4.18004 25.86041,12.40729 31.84816,24.26893 3.18771,6.31483 4.28016,10.31976 4.75543,17.4334 0.69497,10.40211 -2.19689,20.76061 -8.48512,30.3932 -5.17264,7.9237 -89.46746,111.45945 -95.55757,117.36933 -12.12144,11.7627 -30.66123,21.30395 -50.56404,26.02211 -5.20382,1.23362 -15.0527,1.31892 -166.31066,1.44039 -88.4286,0.071 -163.428603,-0.15441 -166.666671,-0.50093 z M 383.89699,436.30335 c 11.21971,-2.37863 23.02514,-8.29215 30.59759,-15.32678 5.14368,-4.77836 89.82275,-108.89156 92.36576,-113.56401 1.1417,-2.09773 1.65942,-4.29601 1.65942,-7.04606 0,-3.4041 -0.30952,-4.30661 -2.0863,-6.08339 -1.14747,-1.14746 -3.38768,-2.44762 -4.97825,-2.88923 -2.04441,-0.56762 -50.01209,-0.80263 -163.67124,-0.80188 -158.558,7.3e-4 -160.86479,0.0215 -166.96964,1.48504 -11.41559,2.73661 -23.6539,9.58631 -31.14333,17.4307 -3.61834,3.78983 -84.608192,103.65405 -87.404498,107.77377 -6.101361,8.98897 -4.545219,16.74274 3.810225,18.98516 5.549195,1.48928 320.802153,1.52456 327.820263,0.0367 z M 74.84472,332.63797 c 21.328808,-26.24945 40.02121,-48.55891 42.98561,-51.30349 12.05733,-11.16324 29.79467,-20.41089 47.74282,-24.89151 6.23365,-1.55618 6.91749,-1.56632 121.54833,-1.80177 l 115.27942,-0.2368 -0.24139,-26.71515 c -0.2174,-24.05997 -0.3762,-27.00837 -1.59772,-29.66524 -3.28625,-7.14774 -8.75709,-12.48211 -15.94532,-15.5476 -3.19433,-1.36225 -6.66675,-1.42919 -92.55871,-1.78411 l -89.23987,-0.36876 -4.4371,-2.32053 c -5.21908,-2.72949 -10.39568,-8.00295 -12.92552,-13.16738 -1.6898,-3.44957 -1.83602,-4.71111 -2.26534,-19.54427 -0.25241,-8.72117 -0.79042,-16.86177 -1.19556,-18.09023 -2.41535,-7.32367 -8.18673,-13.7639 -15.31494,-17.08982 l -4.42512,-2.06469 H 109.50615 56.757992 l -4.914677,2.41949 c -5.518203,2.7166 -10.442521,7.64627 -13.216282,13.23065 l -1.751053,3.52537 -0.1927,125.93147 c -0.105985,69.26231 -0.05458,125.93147 0.114244,125.93147 0.168819,0 17.290056,-20.90119 38.047196,-46.4471 z"
   id="path1614" /></svg>
